# xmcd
#
# Track frame offsets:
# 183
# 15768
# 29815
# 42870
# 57825
# 71538
# 87670
# 105510
# 121025
# 136098
# 151220
# 164425
#
# Disc length: 2355 seconds
#
#
# Revision: 0
# Processed by: cddbd v1.5.1PL2 Copyright (c) Steve Scherf et al.
# Submitted via: FreeRIP 2.944 
#
DISCID=9009310c
DTITLE=Milionário e José Rico - Vontade dividida
DYEAR=1900
DGENRE=Sertanejo
TTITLE0=Sentado à beira do mar (Toni Damito_José Homero)
TTITLE1=Porto da Saudade (José Rico_Brê Martins)
TTITLE2=Lembrança de um Boiadeiro (Joel Marques_João Gonçalves)
TTITLE3=Mentira também é verdade (José Rico_Paulo Gaúcho)
TTITLE4=Amante da estrada (José Rico_Cowboy)
TTITLE5=Meu castigo (Cancioneiro_José Rico)
TTITLE6=Vontade Dividida (Ronery_José Raimundo)
TTITLE7=999 (Léo Canhoto)
TTITLE8=Convite (Clemente Manoel_Paulo Meia Lua_Francisco Almendro)
TTITLE9=Última Chance (José Rico_Solemar)
TTITLE10=Vergonha na cara (José Rico)
TTITLE11=Não me procures mais (José Rico)
EXTD=Rítimos:\n1 - Balanço\n2 - Rancheira\n3 - Toada\n4 - Balanço\n5 - Polca Paraguaia\n6 - Huapango\n7 - Balanço\n8 - Toada\n9 - Valsa Rancheira\n10 - Balanço\n11 - Batidão\n12 - Guarania
EXTT0=
EXTT1=
EXTT2=
EXTT3=
EXTT4=
EXTT5=
EXTT6=
EXTT7=
EXTT8=
EXTT9=
EXTT10=
EXTT11=
PLAYORDER=
